<?xml version="1.0" standalone="no"?>
<!DOCTYPE svg PUBLIC "-//W3C//DTD SVG 20010904//EN"
 "http://www.w3.org/TR/2001/REC-SVG-20010904/DTD/svg10.dtd">
<svg version="1.0" xmlns="http://www.w3.org/2000/svg"
 width="270.000000pt" height="270.000000pt" viewBox="0 0 270.000000 270.000000"
 preserveAspectRatio="xMidYMid meet">
<metadata>
Created by potrace 1.11, written by Peter Selinger 2001-2013
</metadata>
<g transform="translate(0.000000,270.000000) scale(0.100000,-0.100000)"
fill="#000000" stroke="none">
<path d="M848 2296 c-58 -45 -62 -46 -128 -27 -50 15 -165 10 -260 -11 -9 -2
-39 -16 -68 -31 -28 -15 -52 -24 -52 -21 0 4 -6 2 -12 -3 -7 -6 -22 -9 -33 -7
-11 2 -44 0 -73 -5 -29 -4 -55 -4 -58 1 -3 4 -9 6 -13 4 -4 -3 -35 3 -69 13
-49 15 -62 16 -66 6 -3 -8 -2 -15 2 -17 17 -7 72 -88 95 -138 41 -92 48 -122
38 -173 -18 -96 -4 -167 43 -225 82 -100 180 -192 204 -192 13 0 35 -44 37
-76 2 -17 14 -52 29 -77 24 -44 26 -77 4 -77 -5 0 -6 -4 -3 -10 3 -5 2 -10 -3
-10 -10 0 -27 -48 -23 -65 2 -5 4 -14 5 -20 1 -5 8 -20 14 -32 11 -21 10 -23
-8 -23 -52 0 -57 -53 -13 -129 28 -48 95 -121 111 -121 5 0 12 -6 15 -14 7
-17 124 -96 144 -96 7 0 19 -5 26 -10 57 -48 200 -150 216 -155 12 -3 21 -10
21 -14 0 -9 102 -67 113 -63 4 1 7 -2 7 -7 0 -11 59 -20 65 -11 3 4 17 6 32 4
16 -2 53 -5 83 -8 30 -3 66 -8 80 -11 14 -3 41 -8 60 -11 19 -4 44 -8 55 -10
42 -8 93 -14 175 -19 47 -2 99 -8 115 -13 17 -5 49 -8 73 -8 23 1 42 -3 42 -7
0 -5 5 -5 10 -2 13 8 144 10 157 2 13 -8 100 -10 145 -3 21 3 70 15 110 27 40
11 82 23 93 26 11 3 56 43 100 88 44 45 94 89 110 99 39 22 54 70 51 156 -2
44 2 75 13 95 19 38 20 44 6 80 -7 17 -11 48 -9 70 1 22 -3 58 -9 80 -5 22
-12 46 -13 54 -2 8 -12 27 -23 42 -12 15 -24 52 -27 81 -4 29 -10 55 -15 56
-5 2 -7 8 -4 12 3 5 -5 19 -17 32 -28 28 -61 78 -52 78 4 0 0 7 -7 16 -7 9
-14 23 -15 31 -2 9 -23 37 -48 62 -25 26 -46 51 -46 57 0 15 -69 77 -122 110
-27 16 -48 32 -48 37 0 4 -7 7 -15 7 -8 0 -15 5 -15 10 0 6 -5 10 -10 10 -6 0
-28 12 -50 26 -150 100 -282 149 -415 155 -27 1 -54 5 -60 9 -5 4 -37 8 -70 8
-33 1 -97 3 -142 6 -48 3 -105 -1 -137 -8 -33 -8 -60 -9 -70 -4 -9 5 -22 8
-28 7 -34 -4 -57 3 -79 24 -35 33 -96 77 -108 77 -5 0 -18 11 -29 25 -15 19
-19 38 -17 86 3 71 -15 124 -44 132 -12 3 -37 -10 -73 -37z"/>
</g>
</svg>
